<mxfile host="Electron" agent="Mozilla/5.0 (Macintosh; Intel Mac OS X 10_15_7) AppleWebKit/537.36 (KHTML, like Gecko) draw.io/28.1.2 Chrome/138.0.7204.243 Electron/37.4.0 Safari/537.36" version="28.1.2">
  <diagram name="PÃ¡gina-1" id="P8yJh-1VdsqpzeAP0Y6a">
    <mxGraphModel dx="1545" dy="1150" grid="1" gridSize="10" guides="1" tooltips="1" connect="1" arrows="1" fold="1" page="1" pageScale="1" pageWidth="827" pageHeight="1169" math="0" shadow="0">
      <root>
        <mxCell id="0" />
        <mxCell id="1" parent="0" />
        <mxCell id="eNFxhZvSAb7luBw2hGWi-31" value="&lt;font style=&quot;color: rgb(255, 255, 255); font-size: 20px;&quot;&gt;&lt;b&gt;214&lt;/b&gt;&lt;/font&gt;" style="whiteSpace=wrap;html=1;aspect=fixed;fillColor=light-dark(#dedede, #434343);shadow=0;" vertex="1" parent="1">
          <mxGeometry x="400" y="440" width="80" height="80" as="geometry" />
        </mxCell>
        <mxCell id="eNFxhZvSAb7luBw2hGWi-44" value="&lt;font style=&quot;color: rgb(255, 255, 255); font-size: 20px;&quot;&gt;&lt;b&gt;198&lt;/b&gt;&lt;/font&gt;" style="whiteSpace=wrap;html=1;aspect=fixed;fillColor=#C6C6C6;shadow=0;" vertex="1" parent="1">
          <mxGeometry x="240" y="520" width="80" height="80" as="geometry" />
        </mxCell>
        <mxCell id="eNFxhZvSAb7luBw2hGWi-52" value="&lt;font style=&quot;color: rgb(255, 255, 255); font-size: 20px;&quot;&gt;&lt;b&gt;198&lt;/b&gt;&lt;/font&gt;" style="whiteSpace=wrap;html=1;aspect=fixed;fillColor=#C6C6C6;shadow=0;" vertex="1" parent="1">
          <mxGeometry x="160" y="600" width="80" height="80" as="geometry" />
        </mxCell>
        <mxCell id="eNFxhZvSAb7luBw2hGWi-53" value="&lt;font style=&quot;font-size: 20px; color: rgb(255, 255, 255);&quot;&gt;&lt;b&gt;149&lt;/b&gt;&lt;/font&gt;" style="whiteSpace=wrap;html=1;aspect=fixed;fillColor=light-dark(#959595, #434343);" vertex="1" parent="1">
          <mxGeometry x="240" y="440" width="80" height="80" as="geometry" />
        </mxCell>
        <mxCell id="eNFxhZvSAb7luBw2hGWi-54" value="&lt;font style=&quot;font-size: 20px; color: rgb(255, 255, 255);&quot;&gt;&lt;b&gt;149&lt;/b&gt;&lt;/font&gt;" style="whiteSpace=wrap;html=1;aspect=fixed;fillColor=light-dark(#959595, #434343);" vertex="1" parent="1">
          <mxGeometry x="160" y="520" width="80" height="80" as="geometry" />
        </mxCell>
        <mxCell id="eNFxhZvSAb7luBw2hGWi-55" value="&lt;font style=&quot;font-size: 20px; color: rgb(255, 255, 255);&quot;&gt;&lt;b&gt;138&lt;/b&gt;&lt;/font&gt;" style="whiteSpace=wrap;html=1;aspect=fixed;fillColor=light-dark(#787878, #434343);fillStyle=solid;" vertex="1" parent="1">
          <mxGeometry x="160" y="440" width="80" height="80" as="geometry" />
        </mxCell>
        <mxCell id="eNFxhZvSAb7luBw2hGWi-58" value="&lt;font style=&quot;font-size: 20px; color: rgb(255, 255, 255);&quot;&gt;&lt;b&gt;149&lt;/b&gt;&lt;/font&gt;" style="whiteSpace=wrap;html=1;aspect=fixed;fillColor=light-dark(#959595, #434343);" vertex="1" parent="1">
          <mxGeometry x="320" y="360" width="80" height="80" as="geometry" />
        </mxCell>
        <mxCell id="eNFxhZvSAb7luBw2hGWi-59" value="&lt;font style=&quot;font-size: 20px; color: rgb(255, 255, 255);&quot;&gt;&lt;b&gt;149&lt;/b&gt;&lt;/font&gt;" style="whiteSpace=wrap;html=1;aspect=fixed;fillColor=light-dark(#959595, #434343);" vertex="1" parent="1">
          <mxGeometry x="400" y="280" width="80" height="80" as="geometry" />
        </mxCell>
        <mxCell id="eNFxhZvSAb7luBw2hGWi-64" value="&lt;font style=&quot;color: rgb(255, 255, 255); font-size: 20px;&quot;&gt;&lt;b&gt;198&lt;/b&gt;&lt;/font&gt;" style="whiteSpace=wrap;html=1;aspect=fixed;fillColor=#C6C6C6;shadow=0;" vertex="1" parent="1">
          <mxGeometry x="400" y="360" width="80" height="80" as="geometry" />
        </mxCell>
        <mxCell id="eNFxhZvSAb7luBw2hGWi-66" value="&lt;font style=&quot;color: rgb(255, 255, 255); font-size: 20px;&quot;&gt;&lt;b&gt;198&lt;/b&gt;&lt;/font&gt;" style="whiteSpace=wrap;html=1;aspect=fixed;fillColor=#C6C6C6;shadow=0;" vertex="1" parent="1">
          <mxGeometry x="480" y="280" width="80" height="80" as="geometry" />
        </mxCell>
        <mxCell id="eNFxhZvSAb7luBw2hGWi-67" value="&lt;font style=&quot;color: rgb(255, 255, 255); font-size: 20px;&quot;&gt;&lt;b&gt;198&lt;/b&gt;&lt;/font&gt;" style="whiteSpace=wrap;html=1;aspect=fixed;fillColor=#C6C6C6;shadow=0;" vertex="1" parent="1">
          <mxGeometry x="320" y="440" width="80" height="80" as="geometry" />
        </mxCell>
        <mxCell id="eNFxhZvSAb7luBw2hGWi-68" value="&lt;font style=&quot;font-size: 20px; color: rgb(255, 255, 255);&quot;&gt;&lt;b&gt;138&lt;/b&gt;&lt;/font&gt;" style="whiteSpace=wrap;html=1;aspect=fixed;fillColor=light-dark(#787878, #434343);fillStyle=solid;" vertex="1" parent="1">
          <mxGeometry x="240" y="360" width="80" height="80" as="geometry" />
        </mxCell>
        <mxCell id="eNFxhZvSAb7luBw2hGWi-69" value="&lt;font style=&quot;font-size: 20px; color: rgb(255, 255, 255);&quot;&gt;&lt;b&gt;138&lt;/b&gt;&lt;/font&gt;" style="whiteSpace=wrap;html=1;aspect=fixed;fillColor=light-dark(#787878, #434343);fillStyle=solid;" vertex="1" parent="1">
          <mxGeometry x="160" y="360" width="80" height="80" as="geometry" />
        </mxCell>
        <mxCell id="eNFxhZvSAb7luBw2hGWi-70" value="&lt;font style=&quot;font-size: 20px; color: rgb(255, 255, 255);&quot;&gt;&lt;b&gt;138&lt;/b&gt;&lt;/font&gt;" style="whiteSpace=wrap;html=1;aspect=fixed;fillColor=light-dark(#787878, #434343);fillStyle=solid;" vertex="1" parent="1">
          <mxGeometry x="240" y="280" width="80" height="80" as="geometry" />
        </mxCell>
        <mxCell id="eNFxhZvSAb7luBw2hGWi-71" value="&lt;font style=&quot;font-size: 20px; color: rgb(255, 255, 255);&quot;&gt;&lt;b&gt;138&lt;/b&gt;&lt;/font&gt;" style="whiteSpace=wrap;html=1;aspect=fixed;fillColor=light-dark(#787878, #434343);fillStyle=solid;" vertex="1" parent="1">
          <mxGeometry x="160" y="280" width="80" height="80" as="geometry" />
        </mxCell>
        <mxCell id="eNFxhZvSAb7luBw2hGWi-72" value="&lt;font style=&quot;color: rgb(255, 255, 255); font-size: 20px;&quot;&gt;&lt;b&gt;214&lt;/b&gt;&lt;/font&gt;" style="whiteSpace=wrap;html=1;aspect=fixed;fillColor=light-dark(#dedede, #434343);shadow=0;" vertex="1" parent="1">
          <mxGeometry x="480" y="360" width="80" height="80" as="geometry" />
        </mxCell>
        <mxCell id="eNFxhZvSAb7luBw2hGWi-73" value="&lt;font style=&quot;color: rgb(255, 255, 255); font-size: 20px;&quot;&gt;&lt;b&gt;214&lt;/b&gt;&lt;/font&gt;" style="whiteSpace=wrap;html=1;aspect=fixed;fillColor=light-dark(#dedede, #434343);shadow=0;" vertex="1" parent="1">
          <mxGeometry x="480" y="440" width="80" height="80" as="geometry" />
        </mxCell>
        <mxCell id="eNFxhZvSAb7luBw2hGWi-74" value="&lt;font style=&quot;color: rgb(255, 255, 255); font-size: 20px;&quot;&gt;&lt;b&gt;214&lt;/b&gt;&lt;/font&gt;" style="whiteSpace=wrap;html=1;aspect=fixed;fillColor=light-dark(#dedede, #434343);shadow=0;" vertex="1" parent="1">
          <mxGeometry x="480" y="520" width="80" height="80" as="geometry" />
        </mxCell>
        <mxCell id="eNFxhZvSAb7luBw2hGWi-75" value="&lt;font style=&quot;color: rgb(255, 255, 255); font-size: 20px;&quot;&gt;&lt;b&gt;214&lt;/b&gt;&lt;/font&gt;" style="whiteSpace=wrap;html=1;aspect=fixed;fillColor=light-dark(#dedede, #434343);shadow=0;" vertex="1" parent="1">
          <mxGeometry x="480" y="600" width="80" height="80" as="geometry" />
        </mxCell>
        <mxCell id="eNFxhZvSAb7luBw2hGWi-76" value="&lt;font style=&quot;color: rgb(255, 255, 255); font-size: 20px;&quot;&gt;&lt;b&gt;214&lt;/b&gt;&lt;/font&gt;" style="whiteSpace=wrap;html=1;aspect=fixed;fillColor=light-dark(#dedede, #434343);shadow=0;" vertex="1" parent="1">
          <mxGeometry x="400" y="520" width="80" height="80" as="geometry" />
        </mxCell>
        <mxCell id="eNFxhZvSAb7luBw2hGWi-77" value="&lt;font style=&quot;color: rgb(255, 255, 255); font-size: 20px;&quot;&gt;&lt;b&gt;214&lt;/b&gt;&lt;/font&gt;" style="whiteSpace=wrap;html=1;aspect=fixed;fillColor=light-dark(#dedede, #434343);shadow=0;" vertex="1" parent="1">
          <mxGeometry x="400" y="600" width="80" height="80" as="geometry" />
        </mxCell>
        <mxCell id="eNFxhZvSAb7luBw2hGWi-79" value="&lt;font style=&quot;color: rgb(255, 255, 255); font-size: 20px;&quot;&gt;&lt;b&gt;214&lt;/b&gt;&lt;/font&gt;" style="whiteSpace=wrap;html=1;aspect=fixed;fillColor=light-dark(#dedede, #434343);shadow=0;" vertex="1" parent="1">
          <mxGeometry x="240" y="600" width="80" height="80" as="geometry" />
        </mxCell>
        <mxCell id="eNFxhZvSAb7luBw2hGWi-80" value="&lt;font style=&quot;color: rgb(255, 255, 255); font-size: 20px;&quot;&gt;&lt;b&gt;214&lt;/b&gt;&lt;/font&gt;" style="whiteSpace=wrap;html=1;aspect=fixed;fillColor=light-dark(#dedede, #434343);shadow=0;" vertex="1" parent="1">
          <mxGeometry x="320" y="600" width="80" height="80" as="geometry" />
        </mxCell>
        <mxCell id="eNFxhZvSAb7luBw2hGWi-81" value="&lt;font style=&quot;color: rgb(255, 255, 255); font-size: 20px;&quot;&gt;&lt;b&gt;214&lt;/b&gt;&lt;/font&gt;" style="whiteSpace=wrap;html=1;aspect=fixed;fillColor=light-dark(#dedede, #434343);shadow=0;" vertex="1" parent="1">
          <mxGeometry x="320" y="520" width="80" height="80" as="geometry" />
        </mxCell>
        <mxCell id="eNFxhZvSAb7luBw2hGWi-82" value="&lt;font style=&quot;font-size: 20px; color: rgb(255, 255, 255);&quot;&gt;&lt;b&gt;138&lt;/b&gt;&lt;/font&gt;" style="whiteSpace=wrap;html=1;aspect=fixed;fillColor=light-dark(#787878, #434343);fillStyle=solid;" vertex="1" parent="1">
          <mxGeometry x="320" y="280" width="80" height="80" as="geometry" />
        </mxCell>
      </root>
    </mxGraphModel>
  </diagram>
</mxfile>
